<svg id="visual" preserveAspectRatio="none" viewBox="0 0 540 256" width="540" height="256" xmlns="http://www.w3.org/2000/svg" xmlns:xlink="http://www.w3.org/1999/xlink" version="1.1"><path d="M0 116L12.8 114.3C25.7 112.7 51.3 109.3 77 100.8C102.7 92.3 128.3 78.7 154 71.7C179.7 64.7 205.3 64.3 231.2 62.8C257 61.3 283 58.7 308.8 67.7C334.7 76.7 360.3 97.3 386 104.5C411.7 111.7 437.3 105.3 463 98.5C488.7 91.7 514.3 84.3 527.2 80.7L540 77L540 257L527.2 257C514.3 257 488.7 257 463 257C437.3 257 411.7 257 386 257C360.3 257 334.7 257 308.8 257C283 257 257 257 231.2 257C205.3 257 179.7 257 154 257C128.3 257 102.7 257 77 257C51.3 257 25.7 257 12.8 257L0 257Z" fill="#fa7268"></path><path d="M0 132L12.8 124.3C25.7 116.7 51.3 101.3 77 102.8C102.7 104.3 128.3 122.7 154 129.2C179.7 135.7 205.3 130.3 231.2 120.3C257 110.3 283 95.7 308.8 91.5C334.7 87.3 360.3 93.7 386 98.8C411.7 104 437.3 108 463 116.8C488.7 125.7 514.3 139.3 527.2 146.2L540 153L540 257L527.2 257C514.3 257 488.7 257 463 257C437.3 257 411.7 257 386 257C360.3 257 334.7 257 308.8 257C283 257 257 257 231.2 257C205.3 257 179.7 257 154 257C128.3 257 102.7 257 77 257C51.3 257 25.7 257 12.8 257L0 257Z" fill="#ef5f67"></path><path d="M0 153L12.8 147C25.7 141 51.3 129 77 126.7C102.7 124.3 128.3 131.7 154 132.3C179.7 133 205.3 127 231.2 130.5C257 134 283 147 308.8 155C334.7 163 360.3 166 386 160.3C411.7 154.7 437.3 140.3 463 133C488.7 125.7 514.3 125.3 527.2 125.2L540 125L540 257L527.2 257C514.3 257 488.7 257 463 257C437.3 257 411.7 257 386 257C360.3 257 334.7 257 308.8 257C283 257 257 257 231.2 257C205.3 257 179.7 257 154 257C128.3 257 102.7 257 77 257C51.3 257 25.7 257 12.8 257L0 257Z" fill="#e34c67"></path><path d="M0 162L12.8 168.8C25.7 175.7 51.3 189.3 77 196.7C102.7 204 128.3 205 154 205.2C179.7 205.3 205.3 204.7 231.2 197.5C257 190.3 283 176.7 308.8 170.2C334.7 163.7 360.3 164.3 386 166.2C411.7 168 437.3 171 463 177C488.7 183 514.3 192 527.2 196.5L540 201L540 257L527.2 257C514.3 257 488.7 257 463 257C437.3 257 411.7 257 386 257C360.3 257 334.7 257 308.8 257C283 257 257 257 231.2 257C205.3 257 179.7 257 154 257C128.3 257 102.7 257 77 257C51.3 257 25.7 257 12.8 257L0 257Z" fill="#d53867"></path><path d="M0 199L12.8 199C25.7 199 51.3 199 77 201.5C102.7 204 128.3 209 154 211.5C179.7 214 205.3 214 231.2 211C257 208 283 202 308.8 202.2C334.7 202.3 360.3 208.7 386 211.8C411.7 215 437.3 215 463 213.2C488.7 211.3 514.3 207.7 527.2 205.8L540 204L540 257L527.2 257C514.3 257 488.7 257 463 257C437.3 257 411.7 257 386 257C360.3 257 334.7 257 308.8 257C283 257 257 257 231.2 257C205.3 257 179.7 257 154 257C128.3 257 102.7 257 77 257C51.3 257 25.7 257 12.8 257L0 257Z" fill="#c62368"></path></svg>