<svg id="visual" viewBox="0 0 540 960" width="540" height="960" xmlns="http://www.w3.org/2000/svg" xmlns:xlink="http://www.w3.org/1999/xlink" version="1.1"><g stroke-width="1" stroke-linejoin="bevel"><path d="M270 459L212 397L218 470Z" fill="#2b2b2b" stroke="#2b2b2b"></path><path d="M212 397L142 388L218 470Z" fill="#323232" stroke="#323232"></path><path d="M95 452L204 499L218 470Z" fill="#292929" stroke="#292929"></path><path d="M218 470L266 538L270 459Z" fill="#292929" stroke="#292929"></path><path d="M313 514L328 470L270 459Z" fill="#232323" stroke="#232323"></path><path d="M323 351L215 330L212 397Z" fill="#232323" stroke="#232323"></path><path d="M212 397L215 330L193 383Z" fill="#292929" stroke="#292929"></path><path d="M323 351L212 397L270 459Z" fill="#292929" stroke="#292929"></path><path d="M188 325L142 388L193 383Z" fill="#272727" stroke="#272727"></path><path d="M193 383L142 388L212 397Z" fill="#323232" stroke="#323232"></path><path d="M204 499L266 538L218 470Z" fill="#2d2d2d" stroke="#2d2d2d"></path><path d="M162 564L212 540L204 499Z" fill="#232323" stroke="#232323"></path><path d="M204 499L212 540L266 538Z" fill="#242424" stroke="#242424"></path><path d="M266 538L313 514L270 459Z" fill="#2d2d2d" stroke="#2d2d2d"></path><path d="M215 330L188 325L193 383Z" fill="#272727" stroke="#272727"></path><path d="M328 470L323 351L270 459Z" fill="#303030" stroke="#303030"></path><path d="M323 351L257 293L215 330Z" fill="#303030" stroke="#303030"></path><path d="M215 330L257 293L188 325Z" fill="#2d2d2d" stroke="#2d2d2d"></path><path d="M97 392L95 452L142 388Z" fill="#232323" stroke="#232323"></path><path d="M142 388L95 452L218 470Z" fill="#2b2b2b" stroke="#2b2b2b"></path><path d="M397 398L346 336L323 351Z" fill="#212121" stroke="#212121"></path><path d="M317 277L264 280L257 293Z" fill="#2b2b2b" stroke="#2b2b2b"></path><path d="M409 527L382 442L328 470Z" fill="#242424" stroke="#242424"></path><path d="M328 470L382 442L323 351Z" fill="#2e2e2e" stroke="#2e2e2e"></path><path d="M148 307L97 392L142 388Z" fill="#242424" stroke="#242424"></path><path d="M122 553L162 564L204 499Z" fill="#292929" stroke="#292929"></path><path d="M276 614L335 579L266 538Z" fill="#2e2e2e" stroke="#2e2e2e"></path><path d="M158 228L148 307L188 325Z" fill="#212121" stroke="#212121"></path><path d="M188 325L148 307L142 388Z" fill="#2b2b2b" stroke="#2b2b2b"></path><path d="M317 277L257 293L323 351Z" fill="#272727" stroke="#272727"></path><path d="M257 293L254 256L188 325Z" fill="#212121" stroke="#212121"></path><path d="M95 452L97 499L204 499Z" fill="#272727" stroke="#272727"></path><path d="M382 442L397 398L323 351Z" fill="#323232" stroke="#323232"></path><path d="M97 499L122 553L204 499Z" fill="#2b2b2b" stroke="#2b2b2b"></path><path d="M346 336L317 277L323 351Z" fill="#292929" stroke="#292929"></path><path d="M357 284L317 277L346 336Z" fill="#232323" stroke="#232323"></path><path d="M317 277L254 256L264 280Z" fill="#323232" stroke="#323232"></path><path d="M264 280L254 256L257 293Z" fill="#2b2b2b" stroke="#2b2b2b"></path><path d="M276 614L266 538L212 540Z" fill="#292929" stroke="#292929"></path><path d="M266 538L335 579L313 514Z" fill="#262626" stroke="#262626"></path><path d="M313 514L409 527L328 470Z" fill="#303030" stroke="#303030"></path><path d="M158 228L127 286L148 307Z" fill="#262626" stroke="#262626"></path><path d="M148 307L63 308L97 392Z" fill="#2b2b2b" stroke="#2b2b2b"></path><path d="M335 579L362 570L313 514Z" fill="#212121" stroke="#212121"></path><path d="M382 442L442 449L397 398Z" fill="#272727" stroke="#272727"></path><path d="M262 631L276 614L212 540Z" fill="#272727" stroke="#272727"></path><path d="M335 579L329 639L362 570Z" fill="#303030" stroke="#303030"></path><path d="M262 631L212 540L201 638Z" fill="#242424" stroke="#242424"></path><path d="M382 282L357 284L346 336Z" fill="#262626" stroke="#262626"></path><path d="M282 160L219 218L254 256Z" fill="#272727" stroke="#272727"></path><path d="M362 570L409 527L313 514Z" fill="#242424" stroke="#242424"></path><path d="M201 638L212 540L162 564Z" fill="#262626" stroke="#262626"></path><path d="M276 614L329 639L335 579Z" fill="#232323" stroke="#232323"></path><path d="M158 228L118 269L127 286Z" fill="#292929" stroke="#292929"></path><path d="M23 376L34 397L97 392Z" fill="#2e2e2e" stroke="#2e2e2e"></path><path d="M409 527L442 449L382 442Z" fill="#212121" stroke="#212121"></path><path d="M397 398L382 282L346 336Z" fill="#2e2e2e" stroke="#2e2e2e"></path><path d="M63 308L148 307L127 286Z" fill="#2d2d2d" stroke="#2d2d2d"></path><path d="M97 392L34 397L95 452Z" fill="#303030" stroke="#303030"></path><path d="M95 452L0 477L97 499Z" fill="#272727" stroke="#272727"></path><path d="M97 499L79 565L122 553Z" fill="#232323" stroke="#232323"></path><path d="M49 567L79 565L97 499Z" fill="#2d2d2d" stroke="#2d2d2d"></path><path d="M134 663L201 638L162 564Z" fill="#242424" stroke="#242424"></path><path d="M454 380L382 282L397 398Z" fill="#2e2e2e" stroke="#2e2e2e"></path><path d="M357 284L369 230L317 277Z" fill="#2b2b2b" stroke="#2b2b2b"></path><path d="M96 612L162 564L122 553Z" fill="#232323" stroke="#232323"></path><path d="M118 269L63 308L127 286Z" fill="#262626" stroke="#262626"></path><path d="M282 160L254 256L317 277Z" fill="#292929" stroke="#292929"></path><path d="M254 256L219 218L188 325Z" fill="#2e2e2e" stroke="#2e2e2e"></path><path d="M442 449L451 392L397 398Z" fill="#262626" stroke="#262626"></path><path d="M219 218L158 228L188 325Z" fill="#2e2e2e" stroke="#2e2e2e"></path><path d="M118 269L76 227L63 308Z" fill="#292929" stroke="#292929"></path><path d="M63 308L23 376L97 392Z" fill="#2e2e2e" stroke="#2e2e2e"></path><path d="M0 514L49 567L97 499Z" fill="#212121" stroke="#212121"></path><path d="M509 441L454 380L451 392Z" fill="#2d2d2d" stroke="#2d2d2d"></path><path d="M451 392L454 380L397 398Z" fill="#2d2d2d" stroke="#2d2d2d"></path><path d="M235 683L329 639L262 631Z" fill="#303030" stroke="#303030"></path><path d="M262 631L329 639L276 614Z" fill="#2d2d2d" stroke="#2d2d2d"></path><path d="M362 570L443 582L409 527Z" fill="#242424" stroke="#242424"></path><path d="M79 565L96 612L122 553Z" fill="#2e2e2e" stroke="#2e2e2e"></path><path d="M0 477L95 452L34 397Z" fill="#303030" stroke="#303030"></path><path d="M79 565L49 567L96 612Z" fill="#212121" stroke="#212121"></path><path d="M0 370L0 392L23 376Z" fill="#303030" stroke="#303030"></path><path d="M23 376L0 392L34 397Z" fill="#292929" stroke="#292929"></path><path d="M446 222L369 230L382 282Z" fill="#2d2d2d" stroke="#2d2d2d"></path><path d="M382 282L369 230L357 284Z" fill="#2b2b2b" stroke="#2b2b2b"></path><path d="M0 392L0 477L34 397Z" fill="#2e2e2e" stroke="#2e2e2e"></path><path d="M63 308L0 370L23 376Z" fill="#262626" stroke="#262626"></path><path d="M0 477L0 514L97 499Z" fill="#2d2d2d" stroke="#2d2d2d"></path><path d="M160 673L235 683L201 638Z" fill="#323232" stroke="#323232"></path><path d="M201 638L235 683L262 631Z" fill="#292929" stroke="#292929"></path><path d="M81 661L134 663L96 612Z" fill="#262626" stroke="#262626"></path><path d="M96 612L134 663L162 564Z" fill="#2e2e2e" stroke="#2e2e2e"></path><path d="M81 661L96 612L0 630Z" fill="#262626" stroke="#262626"></path><path d="M134 663L160 673L201 638Z" fill="#323232" stroke="#323232"></path><path d="M380 671L443 582L362 570Z" fill="#242424" stroke="#242424"></path><path d="M512 547L509 441L442 449Z" fill="#272727" stroke="#272727"></path><path d="M442 449L509 441L451 392Z" fill="#292929" stroke="#292929"></path><path d="M158 228L76 227L118 269Z" fill="#272727" stroke="#272727"></path><path d="M63 308L0 271L0 370Z" fill="#242424" stroke="#242424"></path><path d="M60 210L76 227L134 155Z" fill="#2d2d2d" stroke="#2d2d2d"></path><path d="M512 547L442 449L409 527Z" fill="#272727" stroke="#272727"></path><path d="M454 380L494 331L382 282Z" fill="#2e2e2e" stroke="#2e2e2e"></path><path d="M369 230L282 160L317 277Z" fill="#232323" stroke="#232323"></path><path d="M219 218L222 152L158 228Z" fill="#212121" stroke="#212121"></path><path d="M540 360L494 331L454 380Z" fill="#292929" stroke="#292929"></path><path d="M0 630L96 612L49 567Z" fill="#272727" stroke="#272727"></path><path d="M134 663L117 709L160 673Z" fill="#292929" stroke="#292929"></path><path d="M359 698L380 671L329 639Z" fill="#2e2e2e" stroke="#2e2e2e"></path><path d="M329 639L380 671L362 570Z" fill="#292929" stroke="#292929"></path><path d="M540 360L497 330L494 331Z" fill="#212121" stroke="#212121"></path><path d="M494 331L446 222L382 282Z" fill="#272727" stroke="#272727"></path><path d="M369 230L352 169L282 160Z" fill="#2b2b2b" stroke="#2b2b2b"></path><path d="M282 160L222 152L219 218Z" fill="#2b2b2b" stroke="#2b2b2b"></path><path d="M380 671L457 607L443 582Z" fill="#242424" stroke="#242424"></path><path d="M443 582L512 547L409 527Z" fill="#242424" stroke="#242424"></path><path d="M134 155L76 227L158 228Z" fill="#292929" stroke="#292929"></path><path d="M76 227L0 271L63 308Z" fill="#2d2d2d" stroke="#2d2d2d"></path><path d="M0 256L0 271L76 227Z" fill="#2d2d2d" stroke="#2d2d2d"></path><path d="M400 169L352 169L369 230Z" fill="#272727" stroke="#272727"></path><path d="M282 160L212 129L222 152Z" fill="#232323" stroke="#232323"></path><path d="M0 514L0 602L49 567Z" fill="#303030" stroke="#303030"></path><path d="M263 740L359 698L329 639Z" fill="#2b2b2b" stroke="#2b2b2b"></path><path d="M380 671L442 686L457 607Z" fill="#2d2d2d" stroke="#2d2d2d"></path><path d="M60 210L0 256L76 227Z" fill="#2d2d2d" stroke="#2d2d2d"></path><path d="M222 152L134 155L158 228Z" fill="#2d2d2d" stroke="#2d2d2d"></path><path d="M497 330L446 222L494 331Z" fill="#2b2b2b" stroke="#2b2b2b"></path><path d="M457 607L512 547L443 582Z" fill="#2d2d2d" stroke="#2d2d2d"></path><path d="M349 134L328 145L352 169Z" fill="#232323" stroke="#232323"></path><path d="M352 169L328 145L282 160Z" fill="#272727" stroke="#272727"></path><path d="M222 152L212 129L134 155Z" fill="#292929" stroke="#292929"></path><path d="M69 694L117 709L81 661Z" fill="#292929" stroke="#292929"></path><path d="M81 661L117 709L134 663Z" fill="#242424" stroke="#242424"></path><path d="M239 743L263 740L235 683Z" fill="#323232" stroke="#323232"></path><path d="M235 683L263 740L329 639Z" fill="#303030" stroke="#303030"></path><path d="M509 441L540 421L454 380Z" fill="#303030" stroke="#303030"></path><path d="M497 330L475 211L446 222Z" fill="#232323" stroke="#232323"></path><path d="M540 457L540 421L509 441Z" fill="#2e2e2e" stroke="#2e2e2e"></path><path d="M198 94L212 129L291 54Z" fill="#2b2b2b" stroke="#2b2b2b"></path><path d="M512 547L540 457L509 441Z" fill="#242424" stroke="#242424"></path><path d="M0 602L0 630L49 567Z" fill="#2d2d2d" stroke="#2d2d2d"></path><path d="M446 222L400 169L369 230Z" fill="#242424" stroke="#242424"></path><path d="M239 743L235 683L166 745Z" fill="#242424" stroke="#242424"></path><path d="M540 421L540 360L454 380Z" fill="#242424" stroke="#242424"></path><path d="M166 745L235 683L160 673Z" fill="#272727" stroke="#272727"></path><path d="M0 681L69 694L81 661Z" fill="#272727" stroke="#272727"></path><path d="M400 169L349 134L352 169Z" fill="#242424" stroke="#242424"></path><path d="M291 54L212 129L282 160Z" fill="#212121" stroke="#212121"></path><path d="M512 547L540 532L540 457Z" fill="#232323" stroke="#232323"></path><path d="M540 618L540 532L512 547Z" fill="#2e2e2e" stroke="#2e2e2e"></path><path d="M540 618L512 547L457 607Z" fill="#232323" stroke="#232323"></path><path d="M119 765L166 745L117 709Z" fill="#2b2b2b" stroke="#2b2b2b"></path><path d="M117 709L166 745L160 673Z" fill="#2b2b2b" stroke="#2b2b2b"></path><path d="M0 141L0 214L60 210Z" fill="#292929" stroke="#292929"></path><path d="M60 210L0 214L0 256Z" fill="#2e2e2e" stroke="#2e2e2e"></path><path d="M540 237L475 211L497 330Z" fill="#232323" stroke="#232323"></path><path d="M446 222L475 211L400 169Z" fill="#303030" stroke="#303030"></path><path d="M447 90L345 86L349 134Z" fill="#232323" stroke="#232323"></path><path d="M540 360L540 314L497 330Z" fill="#2b2b2b" stroke="#2b2b2b"></path><path d="M394 745L380 671L359 698Z" fill="#292929" stroke="#292929"></path><path d="M394 745L442 686L380 671Z" fill="#212121" stroke="#212121"></path><path d="M291 54L282 160L328 145Z" fill="#212121" stroke="#212121"></path><path d="M212 129L198 94L134 155Z" fill="#262626" stroke="#262626"></path><path d="M134 155L28 97L60 210Z" fill="#242424" stroke="#242424"></path><path d="M0 630L0 681L81 661Z" fill="#323232" stroke="#323232"></path><path d="M87 764L119 765L117 709Z" fill="#2d2d2d" stroke="#2d2d2d"></path><path d="M269 800L301 770L263 740Z" fill="#2e2e2e" stroke="#2e2e2e"></path><path d="M263 740L344 759L359 698Z" fill="#303030" stroke="#303030"></path><path d="M269 800L263 740L239 743Z" fill="#323232" stroke="#323232"></path><path d="M301 770L344 759L263 740Z" fill="#2d2d2d" stroke="#2d2d2d"></path><path d="M344 759L394 745L359 698Z" fill="#2b2b2b" stroke="#2b2b2b"></path><path d="M87 764L117 709L69 694Z" fill="#262626" stroke="#262626"></path><path d="M182 814L269 800L239 743Z" fill="#292929" stroke="#292929"></path><path d="M517 656L457 607L442 686Z" fill="#2e2e2e" stroke="#2e2e2e"></path><path d="M517 656L540 618L457 607Z" fill="#262626" stroke="#262626"></path><path d="M487 700L517 656L442 686Z" fill="#292929" stroke="#292929"></path><path d="M227 29L176 78L198 94Z" fill="#323232" stroke="#323232"></path><path d="M198 94L176 78L134 155Z" fill="#323232" stroke="#323232"></path><path d="M540 314L540 237L497 330Z" fill="#262626" stroke="#262626"></path><path d="M451 114L349 134L400 169Z" fill="#212121" stroke="#212121"></path><path d="M451 114L400 169L475 211Z" fill="#212121" stroke="#212121"></path><path d="M349 134L345 86L328 145Z" fill="#262626" stroke="#262626"></path><path d="M0 681L87 764L69 694Z" fill="#2b2b2b" stroke="#2b2b2b"></path><path d="M441 756L487 700L442 686Z" fill="#272727" stroke="#272727"></path><path d="M176 78L105 89L134 155Z" fill="#232323" stroke="#232323"></path><path d="M182 814L166 745L119 765Z" fill="#272727" stroke="#272727"></path><path d="M182 814L239 743L166 745Z" fill="#212121" stroke="#212121"></path><path d="M301 770L368 820L344 759Z" fill="#303030" stroke="#303030"></path><path d="M368 820L441 756L394 745Z" fill="#212121" stroke="#212121"></path><path d="M28 97L0 141L60 210Z" fill="#2d2d2d" stroke="#2d2d2d"></path><path d="M345 86L291 54L328 145Z" fill="#303030" stroke="#303030"></path><path d="M90 50L28 97L105 89Z" fill="#212121" stroke="#212121"></path><path d="M503 143L451 114L475 211Z" fill="#242424" stroke="#242424"></path><path d="M345 86L325 0L291 54Z" fill="#272727" stroke="#272727"></path><path d="M368 820L394 745L344 759Z" fill="#2e2e2e" stroke="#2e2e2e"></path><path d="M394 745L441 756L442 686Z" fill="#2b2b2b" stroke="#2b2b2b"></path><path d="M152 825L182 814L119 765Z" fill="#242424" stroke="#242424"></path><path d="M240 839L268 817L269 800Z" fill="#323232" stroke="#323232"></path><path d="M269 800L268 817L301 770Z" fill="#262626" stroke="#262626"></path><path d="M540 696L540 680L487 700Z" fill="#272727" stroke="#272727"></path><path d="M487 700L540 680L517 656Z" fill="#2d2d2d" stroke="#2d2d2d"></path><path d="M517 656L540 680L540 618Z" fill="#212121" stroke="#212121"></path><path d="M540 159L503 143L475 211Z" fill="#2b2b2b" stroke="#2b2b2b"></path><path d="M90 50L105 89L176 78Z" fill="#303030" stroke="#303030"></path><path d="M105 89L28 97L134 155Z" fill="#2d2d2d" stroke="#2d2d2d"></path><path d="M475 73L447 90L451 114Z" fill="#262626" stroke="#262626"></path><path d="M451 114L447 90L349 134Z" fill="#2d2d2d" stroke="#2d2d2d"></path><path d="M540 759L540 696L487 700Z" fill="#2d2d2d" stroke="#2d2d2d"></path><path d="M98 829L152 825L119 765Z" fill="#242424" stroke="#242424"></path><path d="M182 814L240 839L269 800Z" fill="#292929" stroke="#292929"></path><path d="M203 0L227 29L325 0Z" fill="#323232" stroke="#323232"></path><path d="M291 54L227 29L198 94Z" fill="#303030" stroke="#303030"></path><path d="M156 843L240 839L182 814Z" fill="#2d2d2d" stroke="#2d2d2d"></path><path d="M268 817L368 820L301 770Z" fill="#242424" stroke="#242424"></path><path d="M540 237L540 159L475 211Z" fill="#2b2b2b" stroke="#2b2b2b"></path><path d="M475 73L454 64L447 90Z" fill="#212121" stroke="#212121"></path><path d="M89 24L90 50L124 0Z" fill="#212121" stroke="#212121"></path><path d="M320 926L368 820L268 817Z" fill="#262626" stroke="#262626"></path><path d="M441 756L507 783L487 700Z" fill="#2b2b2b" stroke="#2b2b2b"></path><path d="M98 829L156 843L152 825Z" fill="#272727" stroke="#272727"></path><path d="M152 825L156 843L182 814Z" fill="#272727" stroke="#272727"></path><path d="M98 829L119 765L87 764Z" fill="#242424" stroke="#242424"></path><path d="M0 815L98 829L87 764Z" fill="#292929" stroke="#292929"></path><path d="M475 73L451 114L503 143Z" fill="#292929" stroke="#292929"></path><path d="M447 90L454 64L345 86Z" fill="#323232" stroke="#323232"></path><path d="M540 98L475 73L503 143Z" fill="#303030" stroke="#303030"></path><path d="M325 0L227 29L291 54Z" fill="#303030" stroke="#303030"></path><path d="M227 29L185 0L176 78Z" fill="#262626" stroke="#262626"></path><path d="M124 0L90 50L176 78Z" fill="#292929" stroke="#292929"></path><path d="M90 50L0 50L28 97Z" fill="#232323" stroke="#232323"></path><path d="M203 0L185 0L227 29Z" fill="#2b2b2b" stroke="#2b2b2b"></path><path d="M344 0L345 86L427 0Z" fill="#2e2e2e" stroke="#2e2e2e"></path><path d="M344 0L325 0L345 86Z" fill="#242424" stroke="#242424"></path><path d="M442 833L507 783L441 756Z" fill="#2e2e2e" stroke="#2e2e2e"></path><path d="M427 0L345 86L454 64Z" fill="#272727" stroke="#272727"></path><path d="M507 783L540 759L487 700Z" fill="#303030" stroke="#303030"></path><path d="M185 0L124 0L176 78Z" fill="#2d2d2d" stroke="#2d2d2d"></path><path d="M70 0L90 50L89 24Z" fill="#212121" stroke="#212121"></path><path d="M70 0L0 50L90 50Z" fill="#2b2b2b" stroke="#2b2b2b"></path><path d="M28 97L0 50L0 141Z" fill="#303030" stroke="#303030"></path><path d="M444 857L442 833L368 820Z" fill="#212121" stroke="#212121"></path><path d="M368 820L442 833L441 756Z" fill="#232323" stroke="#232323"></path><path d="M507 783L540 807L540 759Z" fill="#2b2b2b" stroke="#2b2b2b"></path><path d="M444 857L368 820L375 927Z" fill="#242424" stroke="#242424"></path><path d="M540 159L540 98L503 143Z" fill="#2b2b2b" stroke="#2b2b2b"></path><path d="M474 0L427 0L454 64Z" fill="#272727" stroke="#272727"></path><path d="M127 925L150 918L156 843Z" fill="#303030" stroke="#303030"></path><path d="M0 681L0 815L87 764Z" fill="#262626" stroke="#262626"></path><path d="M0 815L37 860L98 829Z" fill="#323232" stroke="#323232"></path><path d="M124 0L70 0L89 24Z" fill="#2e2e2e" stroke="#2e2e2e"></path><path d="M474 0L454 64L475 73Z" fill="#212121" stroke="#212121"></path><path d="M0 824L37 860L0 815Z" fill="#232323" stroke="#232323"></path><path d="M320 926L268 817L240 839Z" fill="#262626" stroke="#262626"></path><path d="M212 906L240 839L156 843Z" fill="#232323" stroke="#232323"></path><path d="M540 861L540 807L507 783Z" fill="#303030" stroke="#303030"></path><path d="M150 918L212 906L156 843Z" fill="#323232" stroke="#323232"></path><path d="M540 861L507 783L442 833Z" fill="#262626" stroke="#262626"></path><path d="M540 33L474 0L475 73Z" fill="#2b2b2b" stroke="#2b2b2b"></path><path d="M70 0L0 0L0 50Z" fill="#212121" stroke="#212121"></path><path d="M127 925L156 843L98 829Z" fill="#323232" stroke="#323232"></path><path d="M540 98L540 33L475 73Z" fill="#272727" stroke="#272727"></path><path d="M212 906L320 926L240 839Z" fill="#292929" stroke="#292929"></path><path d="M444 857L540 861L442 833Z" fill="#272727" stroke="#272727"></path><path d="M298 960L320 926L212 906Z" fill="#272727" stroke="#272727"></path><path d="M37 860L127 925L98 829Z" fill="#242424" stroke="#242424"></path><path d="M153 960L227 960L212 906Z" fill="#2d2d2d" stroke="#2d2d2d"></path><path d="M325 960L375 927L320 926Z" fill="#2d2d2d" stroke="#2d2d2d"></path><path d="M320 926L375 927L368 820Z" fill="#242424" stroke="#242424"></path><path d="M94 960L96 960L127 925Z" fill="#232323" stroke="#232323"></path><path d="M0 824L0 897L37 860Z" fill="#2e2e2e" stroke="#2e2e2e"></path><path d="M487 920L540 861L444 857Z" fill="#232323" stroke="#232323"></path><path d="M540 33L540 0L474 0Z" fill="#212121" stroke="#212121"></path><path d="M153 960L150 918L127 925Z" fill="#323232" stroke="#323232"></path><path d="M153 960L212 906L150 918Z" fill="#262626" stroke="#262626"></path><path d="M227 960L298 960L212 906Z" fill="#242424" stroke="#242424"></path><path d="M375 927L425 938L444 857Z" fill="#272727" stroke="#272727"></path><path d="M96 960L153 960L127 925Z" fill="#2d2d2d" stroke="#2d2d2d"></path><path d="M298 960L325 960L320 926Z" fill="#323232" stroke="#323232"></path><path d="M388 960L425 938L375 927Z" fill="#232323" stroke="#232323"></path><path d="M94 960L127 925L37 860Z" fill="#323232" stroke="#323232"></path><path d="M0 897L94 960L37 860Z" fill="#272727" stroke="#272727"></path><path d="M425 938L487 920L444 857Z" fill="#232323" stroke="#232323"></path><path d="M325 960L388 960L375 927Z" fill="#232323" stroke="#232323"></path><path d="M425 938L462 960L487 920Z" fill="#2d2d2d" stroke="#2d2d2d"></path><path d="M388 960L462 960L425 938Z" fill="#2e2e2e" stroke="#2e2e2e"></path><path d="M487 920L540 960L540 861Z" fill="#232323" stroke="#232323"></path><path d="M0 897L0 960L94 960Z" fill="#2e2e2e" stroke="#2e2e2e"></path><path d="M462 960L540 960L487 920Z" fill="#242424" stroke="#242424"></path></g></svg>