 <svg version="1.0" xmlns="http://www.w3.org/2000/svg"  width="300.000000pt" height="307.000000pt" viewBox="0 0 300.000000 307.000000"  preserveAspectRatio="xMidYMid meet">  <g transform="translate(0.000000,307.000000) scale(0.100000,-0.100000)" fill="#424242" stroke="none"> <path d="M1385 2534 c-29 -4 -98 -26 -140 -44 -11 -5 -42 -18 -70 -30 -62 -26 -174 -141 -212 -219 -19 -37 -35 -56 -55 -63 -15 -6 -28 -14 -28 -19 0 -5 -31 -40 -70 -78 -38 -38 -70 -72 -70 -76 0 -16 -55 -121 -67 -128 -7 -4 -13 -15 -13 -23 0 -8 -9 -32 -19 -52 -28 -54 -40 -100 -47 -173 -6 -68 -29 -204 -44 -254 -22 -79 -5 -286 28 -330 16 -22 55 -36 83 -30 17 4 29 2 29 -4 0 -5 8 -12 18 -15 11 -4 25 -18 32 -32 16 -30 69 -64 99 -64 12 0 36 7 53 16 35 18 35 15 -2 184 -24 108 -37 381 -21 449 8 37 7 45 -11 63 -16 16 -27 18 -75 12 l-56 -7 5 46 c3 25 15 65 27 89 15 32 21 63 21 115 0 121 31 161 147 192 31 9 47 20 58 41 16 32 61 80 74 80 5 0 25 13 46 30 41 32 94 51 123 43 11 -2 37 3 58 12 108 47 246 85 282 79 124 -21 216 -62 243 -108 11 -19 32 -39 47 -45 15 -7 40 -29 56 -50 28 -38 56 -51 113 -51 44 0 101 -38 124 -81 17 -34 20 -56 17 -128 -3 -82 -1 -90 35 -165 29 -62 33 -77 20 -71 -10 3 -42 11 -71 17 -48 10 -55 9 -72 -8 -19 -19 -19 -21 1 -109 26 -117 22 -287 -11 -430 -12 -55 -24 -110 -27 -122 -10 -45 106 -65 149 -26 13 11 32 23 43 27 11 3 28 19 37 35 14 26 21 29 51 24 52 -8 63 9 97 152 6 28 14 86 17 131 5 77 4 84 -31 161 -20 44 -36 87 -36 95 0 29 -90 272 -108 292 -11 11 -32 43 -47 71 -38 69 -60 98 -137 174 -158 157 -188 187 -210 211 -55 58 -126 117 -163 136 -22 12 -56 30 -75 40 -26 14 -58 19 -125 20 -49 1 -103 0 -120 -2z m283 -79 c56 -33 114 -81 215 -182 75 -75 137 -138 137 -141 0 -2 -14 -2 -32 2 -30 6 -79 46 -156 128 -42 45 -103 75 -205 99 -92 22 -99 21 -248 -30 -63 -22 -132 -42 -153 -45 -21 -4 -51 -9 -65 -13 -39 -9 -152 -90 -181 -129 -23 -31 -84 -63 -97 -50 -3 3 17 27 44 53 28 26 62 68 76 93 39 68 145 173 197 194 25 10 59 25 76 32 55 24 106 32 212 33 l103 1 77 -45z m-922 -612 c-2 -27 -13 -68 -25 -93 -41 -90 -18 -160 53 -160 67 0 66 2 60 -146 -6 -138 9 -285 41 -408 27 -105 -20 -129 -103 -52 -55 51 -82 66 -115 66 -28 0 -50 22 -67 65 -17 43 -20 200 -5 254 7 26 18 84 25 131 27 189 40 246 75 318 43 86 66 95 61 25z m1532 -78 c17 -44 43 -120 58 -170 14 -49 38 -112 52 -140 24 -48 25 -53 14 -135 -7 -47 -20 -116 -29 -155 -18 -69 -18 -70 -56 -76 -22 -3 -51 -19 -70 -36 -38 -36 -99 -73 -119 -73 -8 0 -22 6 -31 13 -16 11 -16 19 4 132 24 131 27 314 9 419 -15 84 -11 89 55 81 91 -12 104 15 60 123 -36 88 -32 155 6 115 9 -10 31 -54 47 -98z"></path> <path d="M1675 2109 c-27 -4 -77 -19 -111 -32 -52 -21 -71 -23 -135 -18 -41 4 -78 9 -84 13 -10 6 -37 11 -130 24 -78 10 -159 8 -181 -5 -16 -10 -13 -11 21 -6 51 7 224 -11 284 -30 9 -3 50 -9 91 -14 63 -8 79 -7 114 9 89 40 171 56 279 54 41 -1 63 2 55 7 -16 11 -136 10 -203 -2z"></path> <path d="M1449 1939 c-9 -5 -27 -37 -40 -71 -33 -92 -91 -165 -147 -190 -89 -39 -143 -49 -257 -46 -60 1 -110 -2 -110 -6 0 -12 230 -7 285 5 117 26 188 92 243 224 15 35 32 61 42 63 23 5 58 -38 94 -113 60 -125 128 -160 306 -159 118 1 185 9 185 24 0 6 -9 6 -22 1 -13 -4 -78 -9 -145 -10 -110 -1 -129 1 -184 24 -69 28 -77 36 -118 121 -48 98 -100 151 -132 133z"></path> <path d="M1983 904 c-61 -136 -60 -131 -56 -271 3 -136 13 -183 35 -183 10 0 10 2 0 9 -21 13 -29 316 -10 339 21 25 60 121 56 139 -2 9 -13 -5 -25 -33z"></path> <path d="M940 901 c0 -5 16 -23 35 -40 32 -28 35 -34 29 -68 -3 -21 -7 -72 -9 -113 -1 -41 -6 -100 -10 -132 -7 -51 -11 -59 -49 -87 -24 -16 -62 -38 -87 -47 -24 -10 -56 -26 -71 -36 -14 -10 -33 -18 -42 -18 -18 0 -66 -11 -221 -52 -212 -55 -270 -72 -290 -84 -11 -6 -42 -20 -70 -30 -57 -20 -68 -27 -119 -72 -54 -47 -40 -60 20 -19 83 57 282 136 381 150 18 3 52 12 75 20 24 8 88 25 143 37 55 13 117 31 138 42 20 10 37 16 37 13 0 -2 -12 -40 -26 -82 -33 -97 -29 -175 11 -227 14 -18 25 -38 25 -44 0 -7 9 -12 20 -12 26 0 25 6 -7 44 -53 63 -64 119 -39 191 8 22 17 52 20 66 3 14 19 41 36 60 17 19 35 44 40 57 5 12 21 27 34 32 47 17 64 76 71 230 1 30 3 73 4 95 4 59 4 60 -34 99 -36 37 -45 43 -45 27z"></path> <path d="M1990 445 c0 -11 24 -55 30 -55 16 0 29 -54 35 -141 6 -88 4 -99 -23 -171 -29 -76 -29 -78 -9 -78 11 0 18 3 14 6 -3 4 5 36 19 71 29 79 34 227 9 287 -18 42 -13 43 46 16 24 -11 54 -20 67 -20 43 0 293 -105 422 -178 41 -23 100 -47 130 -53 63 -13 130 -45 199 -95 27 -18 53 -34 60 -34 24 0 9 21 -41 58 -78 57 -196 110 -235 103 -6 -1 -54 23 -107 54 -53 30 -98 55 -102 55 -6 0 -123 50 -200 86 -28 13 -73 27 -100 30 -27 4 -75 20 -106 35 -50 25 -108 38 -108 24z"></path> </g> </svg> 