<svg preserveAspectRatio='none' id="visual" viewBox="0 0 900 256" width="900" height="256" xmlns="http://www.w3.org/2000/svg" xmlns:xlink="http://www.w3.org/1999/xlink" version="1.1"><path d="M0 83L21.5 100.7C43 118.3 86 153.7 128.8 164.2C171.7 174.7 214.3 160.3 257.2 143C300 125.7 343 105.3 385.8 93.3C428.7 81.3 471.3 77.7 514.2 94C557 110.3 600 146.7 642.8 164.3C685.7 182 728.3 181 771.2 161.5C814 142 857 104 878.5 85L900 66L900 257L878.5 257C857 257 814 257 771.2 257C728.3 257 685.7 257 642.8 257C600 257 557 257 514.2 257C471.3 257 428.7 257 385.8 257C343 257 300 257 257.2 257C214.3 257 171.7 257 128.8 257C86 257 43 257 21.5 257L0 257Z" stroke-linecap="round" stroke-linejoin="miter"></path></svg>